<svg id="visual" viewBox="0 0 900 450" width="900" height="450" xmlns="http://www.w3.org/2000/svg" xmlns:xlink="http://www.w3.org/1999/xlink" version="1.1"><path d="M0 398L30 401C60 404 120 410 180 411.3C240 412.7 300 409.3 360 403.8C420 398.3 480 390.7 540 388.8C600 387 660 391 720 396.7C780 402.3 840 409.7 870 413.3L900 417L900 451L870 451C840 451 780 451 720 451C660 451 600 451 540 451C480 451 420 451 360 451C300 451 240 451 180 451C120 451 60 451 30 451L0 451Z" fill="#0066FF" stroke-linecap="round" stroke-linejoin="miter"></path></svg>